<?xml version="1.0" standalone="no"?>
<!DOCTYPE svg PUBLIC "-//W3C//DTD SVG 20010904//EN"
 "http://www.w3.org/TR/2001/REC-SVG-20010904/DTD/svg10.dtd">
<svg version="1.0" xmlns="http://www.w3.org/2000/svg"
 width="360.000000pt" height="360.000000pt" viewBox="0 0 360.000000 360.000000"
 preserveAspectRatio="xMidYMid meet">

<g transform="translate(0.000000,360.000000) scale(0.100000,-0.100000)"
fill="#000000" stroke="none">
<path d="M1595 2985 c-95 -18 -242 -62 -250 -74 -4 -7 34 -67 71 -110 2 -2 52
10 111 25 99 26 122 29 273 28 144 -1 177 -4 261 -26 403 -108 681 -382 786
-775 23 -85 26 -119 27 -253 1 -139 -2 -165 -27 -255 -37 -135 -129 -319 -213
-423 -151 -188 -366 -324 -599 -378 -124 -29 -380 -26 -499 5 -202 53 -365
147 -511 296 -152 155 -239 321 -285 545 -30 144 -24 331 14 469 52 185 150
354 283 488 63 62 194 165 225 175 6 2 7 33 3 86 l-8 82 -46 -26 c-95 -55
-179 -120 -266 -208 -260 -261 -394 -628 -356 -975 38 -358 196 -648 460 -847
156 -117 337 -196 528 -229 111 -19 326 -19 439 0 346 61 644 266 827 570 43
73 70 133 107 242 95 276 83 572 -35 861 -119 293 -376 535 -685 647 -135 48
-234 66 -400 70 -112 3 -177 0 -235 -10z"/>
<path d="M2445 2253 c-218 -216 -394 -467 -481 -687 l-32 -81 -4 -303 c-1
-166 0 -302 3 -302 19 0 105 91 156 167 167 245 321 595 403 916 39 153 74
353 68 382 -2 11 -37 -18 -113 -92z"/>
<path d="M1793 1720 c-7 -22 -13 -63 -13 -91 0 -36 4 -49 13 -47 16 6 33 131
21 158 -8 18 -10 16 -21 -20z"/>
</g>
</svg>
