<svg xmlns="http://www.w3.org/2000/svg" width="360" height="360" viewBox="0 0 360 360" version="1.1"><path d="M 125 64.692 L 125 70.809 119.750 73.786 C 92.905 89.005, 71.178 116.701, 62.429 146.852 C 58.917 158.956, 57.861 166.900, 57.891 181 C 58.013 239.795, 95.832 286.694, 153.500 299.568 C 164.487 302.021, 187.545 302.516, 199.498 300.556 C 239.687 293.966, 272.191 269.691, 289.955 233 C 312.680 186.065, 302.301 127.832, 264.914 92.492 C 248.242 76.733, 224.761 65.119, 201 60.880 C 183.505 57.759, 156.840 59.824, 141.161 65.516 L 134.501 67.933 129.750 63.254 L 125 58.575 125 64.692 M 126.711 80.750 L 127.155 87.500 121.328 91 C 112.416 96.352, 93.485 115.876, 87.608 125.776 C 81.548 135.983, 76.373 149.536, 73.775 162 C 72.167 169.716, 71.892 173.941, 72.312 184.500 C 73.354 210.666, 81.858 232.045, 99.274 252.279 C 110.699 265.552, 130.820 278.348, 148.176 283.378 C 156.575 285.812, 172.610 287.938, 170.333 286.316 C 169.496 285.720, 169.053 275.856, 168.767 251.492 L 168.369 217.500 162.276 194 C 150.729 149.464, 128.269 74, 126.562 74 C 126.400 74, 126.467 77.037, 126.711 80.750 M 164.814 75.078 C 158.847 75.953, 148.652 78.422, 144.530 79.989 L 142.102 80.912 150.864 98.206 C 155.683 107.718, 160.905 119.100, 162.469 123.500 C 167.423 137.436, 167.010 136.592, 168.073 134.966 C 168.652 134.080, 168.773 127.521, 168.378 118.390 C 168.019 110.080, 168.032 101.643, 168.408 99.640 C 169.070 96.109, 169.222 96, 173.485 96 L 177.879 96 177.363 135.250 C 176.861 173.375, 177.709 193.735, 179.485 186.229 C 180.897 180.257, 182 181.781, 182 189.706 C 182 195.619, 181.512 198.441, 180 201.261 C 178.092 204.822, 178 206.903, 178 246.625 L 178 288.258 187.250 287.548 C 203.033 286.337, 214.481 283.304, 227.004 277.015 C 262.020 259.430, 285.520 223.765, 287.634 185 C 289.178 156.688, 277.410 126.184, 257.114 105.886 C 233.762 82.532, 197.197 70.328, 164.814 75.078 M 242.414 136.500 C 221.962 156.948, 205.436 180.711, 196.308 202.799 L 192 213.224 192 242.612 C 192 262.342, 192.343 272, 193.043 272 C 195.349 272, 204.559 261.995, 210.514 253.022 C 231.323 221.659, 249.649 173.235, 255.037 135.373 C 256.948 121.947, 256.973 121.945, 242.414 136.500" stroke="none" fill="#464f2e" fill-rule="evenodd"/><path d="M 126.711 80.750 L 127.155 87.500 121.328 91 C 112.416 96.352, 93.485 115.876, 87.608 125.776 C 81.548 135.983, 76.373 149.536, 73.775 162 C 72.167 169.716, 71.892 173.941, 72.312 184.500 C 73.354 210.666, 81.858 232.045, 99.274 252.279 C 110.699 265.552, 130.820 278.348, 148.176 283.378 C 156.575 285.812, 172.610 287.938, 170.333 286.316 C 169.496 285.720, 169.053 275.856, 168.767 251.492 L 168.369 217.500 162.276 194 C 150.729 149.464, 128.269 74, 126.562 74 C 126.400 74, 126.467 77.037, 126.711 80.750 M 164.814 75.078 C 158.847 75.953, 148.652 78.422, 144.530 79.989 L 142.102 80.912 150.864 98.206 C 155.683 107.718, 160.905 119.100, 162.469 123.500 C 167.423 137.436, 167.010 136.592, 168.073 134.966 C 168.652 134.080, 168.773 127.521, 168.378 118.390 C 168.019 110.080, 168.032 101.643, 168.408 99.640 C 169.070 96.109, 169.222 96, 173.485 96 L 177.879 96 177.363 135.250 C 176.861 173.375, 177.709 193.735, 179.485 186.229 C 180.897 180.257, 182 181.781, 182 189.706 C 182 195.619, 181.512 198.441, 180 201.261 C 178.092 204.822, 178 206.903, 178 246.625 L 178 288.258 187.250 287.548 C 203.033 286.337, 214.481 283.304, 227.004 277.015 C 262.020 259.430, 285.520 223.765, 287.634 185 C 289.178 156.688, 277.410 126.184, 257.114 105.886 C 233.762 82.532, 197.197 70.328, 164.814 75.078 M 242.414 136.500 C 221.962 156.948, 205.436 180.711, 196.308 202.799 L 192 213.224 192 242.612 C 192 262.342, 192.343 272, 193.043 272 C 195.349 272, 204.559 261.995, 210.514 253.022 C 231.323 221.659, 249.649 173.235, 255.037 135.373 C 256.948 121.947, 256.973 121.945, 242.414 136.500" stroke="none" fill="#e1e4c1" fill-rule="evenodd"/></svg>